#!OML:ASF I:\Actors\actors\Patient Classification 1\Patient 1\Session 1\Subject1.ASF
:FULLY-SPECIFIED
:DEGREES
1102
root 0.731067 17.5433 8.79347 8.38849 -6.36592 -9.80461
lowerback 1.26455 1.43079 5.92347
upperback -8.65413 2.39225 1.08462
thorax -9.7139 0.747094 -2.37577
lowerneck -15.532 2.70821 4.17405
upperneck 27.6487 -0.352385 10.1807
head 11.7175 1.58568 3.03577
rclavicle -2.38542e-015 1.35174e-014
rhumerus 50.4663 60.7188 -21.3884
rradius 116.983
rwrist -47.0586
rhand 16.9319 -22.9191
rfingers 7.12502
rthumb 41.6669 -47.6197
lclavicle -2.38542e-015 1.35174e-014
lhumerus 33.4137 -61.3495 23.9832
lradius 87.7619
lwrist 64.3101
lhand 15.108 -15.7217
lfingers 7.12502
lthumb 39.9533 9.5184
rfemur -5.52149 25.1965 25.3756
rtibia 2.53205
rfoot -9.34659 -20.2155
rtoes -0.880006
lfemur 3.5373 -36.029 -10.397
ltibia -2.83254
lfoot -17.0395 48.2087
ltoes 8.89844
1103
root 0.737 17.5451 8.79374 8.31726 -5.84006 -9.84439
lowerback 1.26608 1.30473 5.94482
upperback -8.612 2.23475 1.23246
thorax -9.68664 0.677346 -2.21568
lowerneck -15.5559 2.71044 4.09281
upperneck 27.5835 -0.252133 9.95307
head 11.6873 1.59184 2.97502
rclavicle 2.54444e-014 -3.33958e-014
rhumerus 48.7652 59.3879 -21.5634
rradius 114.129
rwrist -47.0715
rhand 18.291 -22.2385
rfingers 7.12502
rthumb 42.9398 -46.5056
lclavicle 2.54444e-014 -3.33958e-014
lhumerus 32.6924 -61.2682 24.532
lradius 87.9764
lwrist 64.611
lhand 15.3571 -15.7943
lfingers 7.12502
lthumb 40.1877 9.37488
rfemur -5.3925 25.1031 25.4572
rtibia 2.50052
rfoot -9.48368 -20.6003
rtoes -0.671197
lfemur 3.26894 -35.926 -10.1826
ltibia -2.6983
lfoot -16.3649 47.7121
ltoes 8.0895
1104
root 0.741006 17.5474 8.79452 8.22543 -5.52262 -9.85161
lowerback 1.27757 1.19958 5.96405
upperback -8.5809 2.10302 1.34244
thorax -9.67351 0.617685 -2.09741
lowerneck -15.4847 2.73918 4.12088
upperneck 27.5939 -0.143316 9.71776
head 11.6695 1.61296 2.89546
rclavicle 6.55989e-015 -2.94201e-014
rhumerus 48.6719 58.0877 -20.7477
rradius 111.201
rwrist -47.0992
rhand 18.5983 -21.9835
rfingers 7.12502
rthumb 43.2272 -46.1486
lclavicle 6.55989e-015 -2.94201e-014
lhumerus 31.9706 -61.2471 25.0007
lradius 88.1356
lwrist 64.8285
lhand 15.597 -15.6239
lfingers 7.12502
lthumb 40.4133 9.47612
rfemur -5.25061 25.1261 25.5186
rtibia 2.49896
rfoot -9.62102 -20.9201
rtoes -0.283848
lfemur 3.20133 -35.8836 -10.1251
ltibia -2.66536
lfoot -15.9615 47.4356
ltoes 7.62492
1105
root 0.742689 17.5499 8.79588 8.13314 -5.45214 -9.84887
lowerback 1.3172 1.1756 6.01531
upperback -8.56994 2.0804 1.3869
thorax -9.68771 0.604434 -2.07741
lowerneck -15.5116 2.73133 4.21138
upperneck 27.7982 -0.133942 9.48824
head 11.7536 1.60596 2.80463
rclavicle 2.68359e-015 1.82882e-014
rhumerus 49.748 56.8945 -19.5295
rradius 108.274
rwrist -46.9555
rhand 17.7754 -21.7057
rfingers 7.12502
rthumb 42.4573 -46.1407
lclavicle 2.68359e-015 1.82882e-014
lhumerus 31.8028 -61.309 24.9979
lradius 88.1512
lwrist 64.8986
lhand 16.508 -15.5745
lfingers 7.12502
lthumb 41.2692 9.25578
rfemur -5.1402 25.2208 25.575
rtibia 2.53147
rfoot -9.61109 -21.114
rtoes -0.373837
lfemur 3.28524 -35.8566 -10.1765
ltibia -2.67043
lfoot -15.8979 47.3497
ltoes 7.52995
1106
root 0.743831 17.5507 8.79623 8.06502 -5.54754 -9.83808
lowerback 1.32349 1.2084 6.11331
upperback -8.54393 2.1293 1.378
thorax -9.6563 0.621524 -2.14573
lowerneck -15.6094 2.65911 4.24714
upperneck 28.0614 -0.254263 9.39376
head 11.8817 1.55533 2.75952
rclavicle 2.64384e-014 1.59028e-014
rhumerus 51.372 55.8019 -18.5697
rradius 105.611
rwrist -46.6674
rhand 16.4651 -22.1816
rfingers 7.12502
rthumb 41.2289 -47.0248
lclavicle 2.64384e-014 1.59028e-014
lhumerus 32.1115 -61.4226 24.5936
lradius 88.1098
lwrist 64.987
lhand 17.1152 -15.6765
lfingers 7.12502
lthumb 41.8388 8.96734
rfemur -5.09914 25.3139 25.5967
rtibia 2.59798
rfoot -9.58173 -21.1285
rtoes -0.286794
lfemur 3.38119 -35.7228 -10.2441
ltibia -2.66292
lfoot -15.9484 47.2988
ltoes 7.52224
1107
root 0.744806 17.5503 8.79332 8.04069 -5.7987 -9.80289
lowerback 1.32695 1.275 6.25534
upperback -8.53123 2.22037 1.29084
thorax -9.63042 0.651568 -2.32563
lowerneck -15.5845 2.56435 4.29324
upperneck 28.232 -0.436652 9.446
head 11.953 1.49042 2.7521
rclavicle 9.14409e-015 1.35174e-014
rhumerus 53.1403 54.8069 -18.3586
rradius 103.254
rwrist -46.046
rhand 14.9671 -23.1314
rfingers 7.12502
rthumb 39.8207 -48.4113
lclavicle 9.14409e-015 1.35174e-014
lhumerus 32.6337 -61.5659 23.9742
lradius 88.0603
lwrist 64.8808
lhand 16.6031 -15.7539
lfingers 7.12502
lthumb 41.3585 9.04752
rfemur -5.16536 25.4064 25.5456
rtibia 2.71483
rfoot -9.56976 -20.9553
rtoes -0.188742
lfemur 3.49185 -35.5716 -10.341
ltibia -2.69678
lfoot -16.1758 47.3291
ltoes 7.84393
1108
root 0.746483 17.5494 8.78908 8.08315 -6.22071 -9.76895
lowerback 1.31461 1.42998 6.47651
upperback -8.5291 2.42782 1.11817
thorax -9.59031 0.728644 -2.65043
lowerneck -15.6293 2.41181 4.32546
upperneck 28.3775 -0.730839 9.58837
head 12.035 1.38624 2.76565
rclavicle 6.95746e-016 1.03368e-014
rhumerus 54.8368 53.9289 -18.8166
rradius 101.287
rwrist -45.2408
rhand 12.4703 -24.8647
rfingers 7.12502
rthumb 37.4654 -50.8074
lclavicle 6.95746e-016 1.03368e-014
lhumerus 33.5763 -61.7022 23.0342
lradius 88.0608
lwrist 64.5758
lhand 15.8778 -15.7721
lfingers 7.12502
lthumb 40.6772 9.24597
rfemur -5.33906 25.4227 25.4432
rtibia 2.84344
rfoot -9.47491 -20.5544
rtoes -0.54542
lfemur 3.65885 -35.5412 -10.5011
ltibia -2.77361
lfoot -16.651 47.5994
ltoes 8.50578
1109
root 0.747899 17.5476 8.78563 8.17653 -6.7795 -9.73802
lowerback 1.29701 1.65684 6.70575
upperback -8.51569 2.73246 0.957903
thorax -9.52223 0.854763 -2.97406
lowerneck -15.8338 2.20891 4.24157
upperneck 28.4864 -1.06483 9.69733
head 12.1355 1.24992 2.78185
rclavicle -3.57812e-015 -2.46493e-014
rhumerus 56.5797 53.1371 -19.5073
rradius 99.8207
rwrist -44.2192
rhand 10.8198 -25.4807
rfingers 7.12502
rthumb 35.9035 -51.8208
lclavicle -3.57812e-015 -2.46493e-014
lhumerus 34.5722 -61.7567 22.2205
lradius 88.1589
lwrist 64.3049
lhand 15.561 -15.8804
lfingers 7.12502
lthumb 40.3795 9.23
rfemur -5.57644 25.429 25.3179
rtibia 2.97714
rfoot -9.34684 -20.0094
rtoes -0.847121
lfemur 3.87894 -35.5873 -10.7232
ltibia -2.86767
lfoot -17.2609 48.1022
ltoes 9.15041
1110
root 0.748457 17.5456 8.78327 8.31994 -7.3903 -9.68794
lowerback 1.31414 1.84496 6.89816
upperback -8.5284 2.99116 0.853871
thorax -9.50934 0.961384 -3.21444
lowerneck -15.8123 2.19374 4.32495
upperneck 28.4191 -1.06342 9.56493
head 12.1029 1.23894 2.71359
rclavicle 2.08724e-015 -1.74931e-014
rhumerus 58.9313 52.7127 -19.6687
rradius 99.5613
rwrist -44.9878
rhand 7.98408 -27.2311
rfingers 7.12502
rthumb 33.2119 -54.1863
lclavicle 2.08724e-015 -1.74931e-014
lhumerus 34.8452 -61.7056 22.1175
lradius 88.3822
lwrist 64.1978
lhand 15.7274 -16.0748
lfingers 7.12502
lthumb 40.5359 8.98729
rfemur -5.87637 25.4222 25.1474
rtibia 3.10816
rfoot -9.18468 -19.4064
rtoes -1.17861
lfemur 4.05656 -35.6264 -10.946
ltibia -2.95889
lfoot -17.9726 48.6395
ltoes 9.94975
1111
root 0.750315 17.5448 8.78156 8.51068 -7.92607 -9.61382
lowerback 1.36725 1.97361 7.05464
upperback -8.55699 3.17165 0.749475
thorax -9.54312 1.03021 -3.43051
lowerneck -16.0789 2.10931 4.00014
upperneck 28.414 -1.16323 9.72754
head 12.1584 1.18495 2.82145
rclavicle 3.57812e-015 7.95139e-015
rhumerus 61.2877 52.4302 -19.8499
rradius 99.9813
rwrist -45.5682
rhand 7.15676 -27.3815
rfingers 7.12502
rthumb 32.4249 -54.5013
lclavicle 3.57812e-015 7.95139e-015
lhumerus 34.692 -61.5679 22.3398
lradius 88.7659
lwrist 64.3637
lhand 16.135 -15.9776
lfingers 7.12502
lthumb 40.9189 8.9645
rfemur -6.23476 25.3193 24.9071
rtibia 3.21586
rfoot -9.07352 -18.7769
rtoes -1.39637
lfemur 4.08236 -35.6136 -11.1
ltibia -3.0228
lfoot -18.4612 49.0534
ltoes 10.5388
1112
root 0.751104 17.5462 8.77989 8.70458 -8.34752 -9.53103
lowerback 1.45363 2.09023 7.0834
upperback -8.58202 3.33252 0.663636
thorax -9.59886 1.09954 -3.55607
lowerneck -16.0999 2.13382 4.12858
upperneck 28.1727 -1.12308 9.65603
head 12.0655 1.19835 2.76791
rclavicle -1.09332e-015 4.29375e-014
rhumerus 63.5069 52.3148 -19.7472
rradius 101.263
rwrist -45.6858
rhand 7.79288 -26.9447
rfingers 7.12502
rthumb 33.0301 -53.9386
lclavicle -1.09332e-015 4.29375e-014
lhumerus 34.6307 -61.403 22.4786
lradius 89.2336
lwrist 64.5789
lhand 16.3158 -15.7984
lfingers 7.12502
lthumb 41.0887 9.08973
rfemur -6.55898 25.2773 24.6606
rtibia 3.27045
rfoot -9.02212 -18.2945
rtoes -1.37923
lfemur 4.07296 -35.7811 -11.2464
ltibia -3.08363
lfoot -19.0165 49.5331
ltoes 11.1484
1113
root 0.74828 17.5485 8.78064 8.8874 -8.61635 -9.46903
lowerback 1.49953 2.18239 6.98904
upperback -8.63889 3.45323 0.612022
thorax -9.67682 1.1591 -3.57261
lowerneck -16.0248 2.10464 4.09218
upperneck 27.8994 -1.16105 9.78661
head 11.9451 1.18141 2.8048
rclavicle -2.21645e-014 -1.43125e-014
rhumerus 65.7004 52.4784 -19.0663
rradius 103.247
rwrist -45.3924
rhand 8.68941 -26.4857
rfingers 7.12502
rthumb 33.8823 -53.2955
lclavicle -2.21645e-014 -1.43125e-014
lhumerus 34.6389 -61.2915 22.6294
lradius 89.5972
lwrist 64.5034
lhand 16.2874 -15.8522
lfingers 7.12502
lthumb 41.062 9.04448
rfemur -6.76562 25.3717 24.4883
rtibia 3.20034
rfoot -8.89337 -18.1209
rtoes -1.56129
lfemur 4.06812 -36.143 -11.3638
ltibia -3.14057
lfoot -19.7742 50.05
ltoes 11.9123
1114
root 0.745354 17.5479 8.78307 9.17354 -8.76872 -9.4749
lowerback 1.43433 2.24983 6.88798
upperback -8.77405 3.53657 0.590744
thorax -9.78337 1.19969 -3.54645
lowerneck -15.8519 2.05389 4.07465
upperneck 27.6859 -1.23219 9.91513
head 11.8306 1.15113 2.83336
rclavicle 1.67973e-014 -1.35174e-014
rhumerus 67.9116 52.9143 -17.7432
rradius 105.715
rwrist -45.0453
rhand 10.477 -25.4716
rfingers 7.12502
rthumb 35.5787 -51.8905
lclavicle 1.67973e-014 -1.35174e-014
lhumerus 34.5541 -61.212 22.9768
lradius 89.7765
lwrist 64.3693
lhand 16.8103 -15.7996
lfingers 7.12502
lthumb 41.5528 8.93848
rfemur -7.08206 25.3327 24.3432
rtibia 3.11639
rfoot -8.74062 -17.9369
rtoes -1.73681
lfemur 3.85614 -36.464 -11.2776
ltibia -3.15374
lfoot -20.3526 50.4473
ltoes 12.3716
